<?xml version="1.0" encoding="UTF-8"?>
<svg version="1.1" xmlns="http://www.w3.org/2000/svg" width="1205" height="980">
<path d="M0 0 C397.65 0 795.3 0 1205 0 C1205 323.4 1205 646.8 1205 980 C807.35 980 409.7 980 0 980 C0 656.6 0 333.2 0 0 Z " fill="#FEFEFE" transform="translate(0,0)"/>
<path d="M0 0 C45.87827072 -0.18321772 91.75650262 -0.32413146 137.63506723 -0.40852264 C143.05472641 -0.41852797 148.47438487 -0.42888258 153.89404297 -0.43945312 C154.97297317 -0.44155161 156.05190337 -0.44365009 157.16352843 -0.44581217 C174.62027067 -0.48059737 192.07680157 -0.54365993 209.53341855 -0.61722237 C227.45320962 -0.69210533 245.3728902 -0.73648519 263.2928313 -0.75270796 C274.34538767 -0.76367037 285.39734664 -0.7982597 296.44971906 -0.86333174 C304.03469373 -0.90570701 311.61936077 -0.91838111 319.20444514 -0.90801102 C323.57711431 -0.90290028 327.94874159 -0.91058448 332.32122421 -0.9536438 C336.33298979 -0.99286023 340.34302292 -0.99436306 344.35487185 -0.96719116 C345.79794606 -0.96383817 347.24113279 -0.9737498 348.68398882 -0.99906546 C360.18583499 -1.18896254 366.62659037 1.87352994 376 8 C378.09403899 9.16147525 380.19799702 10.3054672 382.31640625 11.421875 C383.33677979 11.96618164 384.35715332 12.51048828 385.40844727 13.07128906 C386.44928467 13.62526367 387.49012207 14.17923828 388.5625 14.75 C403.89010553 22.95864908 418.95013141 31.58789068 433.91821289 40.43164062 C443.26618386 45.94406601 452.75654698 51.20109965 462.24609375 56.46484375 C463.34953125 57.07875977 464.45296875 57.69267578 465.58984375 58.32519531 C467.76900802 59.53746668 469.94991263 60.74661663 472.1328125 61.95214844 C477.5499771 64.96797803 482.77112299 68.11639156 487.89282227 71.60864258 C491.31326383 73.86714061 494.89719639 75.80097546 498.5 77.75 C507.44241275 82.6560873 516.23063784 87.79261863 525 93 C528.62400882 95.14750996 532.24922759 97.2929691 535.875 99.4375 C536.81069824 99.99099121 537.74639648 100.54448242 538.71044922 101.11474609 C545.34853209 105.03646616 552.00933147 108.91687634 558.6862793 112.77197266 C566.04648921 117.02203067 573.38924838 121.30167773 580.72802734 125.58862305 C585.91427476 128.61799634 591.10363966 131.64169143 596.30078125 134.65234375 C605.80808844 140.16695403 615.24899104 145.72928746 624.51367188 151.64306641 C630.77216413 155.58538445 637.31379219 158.84494569 644 162 C644 162.66 644 163.32 644 164 C644.85078125 164.24363281 645.7015625 164.48726562 646.578125 164.73828125 C650.32302445 166.11910605 653.43788608 168.01184018 656.75 170.1875 C665.19639893 175.60878111 673.87683242 180.59450015 682.59863281 185.55737305 C688.76721784 189.08140535 694.80688134 192.72951885 700.74682617 196.62817383 C703.03307887 198.13505271 703.03307887 198.13505271 706 199 C706 199.66 706 200.32 706 201 C706.53882813 201.09587402 707.07765625 201.19174805 707.6328125 201.29052734 C710.70201627 202.21040215 713.12719854 203.70228204 715.875 205.3515625 C716.44017334 205.68868256 717.00534668 206.02580261 717.58764648 206.37313843 C719.39466186 207.45233507 721.19741428 208.53842394 723 209.625 C724.7676758 210.68424685 726.53620941 211.7420511 728.30477905 212.79980469 C729.4780894 213.50187195 730.65096065 214.20467356 731.82339478 214.90820312 C735.66458202 217.21118662 739.52507703 219.47818024 743.3984375 221.7265625 C747.86110127 224.32152979 752.26477472 226.98716124 756.625 229.75 C768.42590752 237.17243325 780.3340974 244.41703328 792.296875 251.57519531 C797.39922611 254.63168937 802.48430969 257.71604249 807.5625 260.8125 C808.31273437 261.26882813 809.06296875 261.72515625 809.8359375 262.1953125 C813.95386805 264.710589 818.00548207 267.29281486 822 270 C818.03649901 271.321167 816.78653238 270.31463117 813.00390625 268.6484375 C811.80443359 268.12636719 810.60496094 267.60429688 809.36914062 267.06640625 C808.10011237 266.50293748 806.83123275 265.93913383 805.5625 265.375 C804.32917338 264.83372914 803.09545269 264.29335527 801.86132812 263.75390625 C799.42126265 262.68708391 796.98292333 261.61662086 794.54541016 260.54394531 C790.2681421 258.68129256 785.9650256 256.88725638 781.65014648 255.11376953 C778.90767939 253.96120068 776.20247559 252.74316435 773.5 251.5 C767.72832542 248.84769868 761.8708017 246.42287054 756 244 C752.84163446 242.67016188 749.69901947 241.32401875 746.58984375 239.8828125 C741.90171986 237.71076086 737.22002647 235.67234853 732.375 233.875 C724.55359327 230.92793885 716.95682004 227.48586905 709.31982422 224.0949707 C702.27705991 220.97678813 695.20149628 218.01308638 688.03125 215.203125 C684.60961081 213.84505171 681.25047453 212.37962971 677.8984375 210.859375 C676.15175194 210.06869429 674.38897328 209.31382195 672.625 208.5625 C670.63377893 207.70421506 668.64687928 206.83445606 666.68359375 205.9140625 C661.16147472 203.32994123 655.60093187 201.07864643 649.875 199 C644.66903299 197.10659028 639.90759325 195.02252676 635.14526367 192.16015625 C633.0832032 191.0449962 631.18105644 190.32316815 628.9453125 189.63671875 C623.45206967 187.86490459 618.14595284 185.70018545 612.8125 183.5 C611.85408203 183.10941406 610.89566406 182.71882812 609.90820312 182.31640625 C606.15271611 180.77476196 602.45377974 179.2277271 598.82421875 177.40625 C595.30529697 175.65408978 591.69382828 174.33311096 588 173 C583.15684253 171.25209355 578.60751398 169.31594618 574 167 C571.58989666 166.05122629 569.18289729 165.13491184 566.75 164.25 C565.34207974 163.73016276 563.93454276 163.20928653 562.52734375 162.6875 C561.79370605 162.41550781 561.06006836 162.14351562 560.30419922 161.86328125 C556.2933729 160.36060252 552.30291382 158.80591781 548.3125 157.25 C547.18183105 156.80962402 547.18183105 156.80962402 546.02832031 156.36035156 C544.01793116 155.57596427 542.00875498 154.78856084 540 154 C539.06027344 153.63261719 538.12054687 153.26523437 537.15234375 152.88671875 C535 152 535 152 532.25 150.5625 C528.96889385 148.98504512 525.73049774 147.85625675 522.2734375 146.7421875 C518.80539023 145.61000712 515.40501041 144.30650654 512 143 C510.96230469 142.60554687 509.92460938 142.21109375 508.85546875 141.8046875 C499.71489387 138.31559949 499.71489387 138.31559949 495.796875 136.5859375 C490.90939669 134.47192258 485.85105848 132.83725866 480.8125 131.125 C468.52749325 126.90753039 468.52749325 126.90753039 463 124.5 C448.46442544 118.2194555 433.09631317 113.6500207 418.06933594 108.7019043 C413.88922414 107.3213202 409.72883969 105.92311436 405.61328125 104.359375 C402.78961557 103.29706618 400.02617012 102.3706114 397.125 101.5625 C393.85743346 100.60781941 390.75554642 99.52128914 387.625 98.1875 C381.84228044 95.80371435 375.87675591 94.11629206 369.8828125 92.35668945 C364.0864263 90.64767729 358.34660389 88.81907235 352.625 86.875 C346.10332785 84.66036224 339.56514588 82.67007558 332.91796875 80.859375 C330.19227743 80.05662789 327.6349425 79.0548524 325 78 C322.93640655 77.56021779 320.87272932 77.12082444 318.80859375 76.68359375 C315.4056667 75.85534308 312.08420058 74.815046 308.75 73.75 C295.05637095 69.39070898 281.22105604 65.53299147 267.30981445 61.93325806 C261.57802872 60.44071617 255.8871165 58.83051346 250.19921875 57.1796875 C239.61775948 54.13535093 228.98314952 51.33765954 218.3125 48.625 C217.39832306 48.39143799 216.48414612 48.15787598 215.54226685 47.91723633 C201.32953297 44.28778547 187.08445183 40.81822374 172.78442383 37.54931641 C166.50390481 36.1044929 160.32811122 34.54890177 154.17504883 32.63427734 C150.94796509 31.69321061 147.68669951 31.12374592 144.375 30.5625 C138.76467308 29.57579616 133.26274716 28.37126417 127.75 26.9375 C122.2920839 25.52323681 116.86950167 24.42077305 111.296875 23.56640625 C106.95898246 22.8211522 102.67155125 21.88984147 98.375 20.9375 C97.57980957 20.76283203 96.78461914 20.58816406 95.96533203 20.40820312 C90.25272286 19.12636143 90.25272286 19.12636143 88 18 C85.31441482 17.55290595 82.63118866 17.1421279 79.9375 16.75 C69.83965219 15.22195241 59.85656239 13.22298038 49.8515625 11.18359375 C45.30480328 10.257027 40.75345339 9.38867358 36.1875 8.5625 C24.06910126 6.32845436 12.04062816 3.61548637 0 1 C0 0.67 0 0.34 0 0 Z " fill="#020202" transform="translate(126,386)"/>
<path d="M0 0 C0.79921875 0.08765625 1.5984375 0.1753125 2.421875 0.265625 C10.02211972 1.56732437 17.16310569 4.00614057 24.4375 6.5 C32.34644927 9.17847478 40.26941722 11.69316056 48.3125 13.9375 C55.94938025 16.07164575 63.47733708 18.40211018 70.97949219 20.97705078 C76.03956538 22.69965204 81.11557594 24.37519032 86.1875 26.0625 C88.30082826 26.76678604 90.41411329 27.47120181 92.52734375 28.17578125 C93.43734131 28.47911377 94.34733887 28.78244629 95.28491211 29.0949707 C95.93339111 29.31113037 96.58187012 29.52729004 97.25 29.75 C97.25 30.41 97.25 31.07 97.25 31.75 C96.65058594 31.99492188 96.05117188 32.23984375 95.43359375 32.4921875 C87.9681557 35.57181344 80.54266483 38.74479643 73.125 41.9375 C71.57703735 42.59758057 71.57703735 42.59758057 69.99780273 43.27099609 C69.02657471 43.69074707 68.05534668 44.11049805 67.0546875 44.54296875 C65.73960205 45.10794067 65.73960205 45.10794067 64.39794922 45.68432617 C62.11029325 46.67693093 62.11029325 46.67693093 60.25 48.75 C58.6445749 49.4673176 57.03545173 50.17724614 55.41088867 50.85009766 C46.80327416 54.43473974 38.5542647 58.59552003 30.375 63.0625 C29.31998291 63.63718018 28.26496582 64.21186035 27.17797852 64.80395508 C18.28906264 69.67507275 9.63901768 74.76473205 1.24609375 80.45703125 C0.5610376 80.92020752 -0.12401855 81.38338379 -0.82983398 81.8605957 C-2.16394072 82.76693466 -3.49315751 83.68052615 -4.81665039 84.60229492 C-9.42152317 87.75 -9.42152317 87.75 -12.75 87.75 C-13.08 88.74 -13.41 89.73 -13.75 90.75 C-15.82337801 92.38858976 -17.88285493 93.89153494 -20.0625 95.375 C-21.35097101 96.27502524 -22.63872004 97.17608486 -23.92578125 98.078125 C-24.57240723 98.52865234 -25.2190332 98.97917969 -25.88525391 99.44335938 C-35.04343085 105.86055799 -43.61085079 112.87338689 -52.01367188 120.234375 C-53.1911854 121.26221583 -54.37502169 122.28284949 -55.56445312 123.296875 C-61.03823861 127.99664606 -66.20234765 132.98304623 -71.31347656 138.07324219 C-72.74100369 139.49106485 -74.17888828 140.89780506 -75.6171875 142.3046875 C-76.54789063 143.23023438 -77.47859375 144.15578125 -78.4375 145.109375 C-79.26636719 145.92889648 -80.09523438 146.74841797 -80.94921875 147.59277344 C-82.78259426 149.45781436 -83.94260585 151.10253916 -85.20909119 153.42067051 C-87.87225077 158.00603125 -89.88548002 161.19429502 -95.11302185 162.75232124 C-99.38160059 163.10644211 -103.52855653 163.11324592 -107.8046875 162.9987793 C-109.43146045 162.99567314 -111.0582488 162.99742472 -112.68501282 163.00364685 C-117.08452311 163.00679377 -121.48071148 162.94229084 -125.87945175 162.86533332 C-130.48236837 162.79640467 -135.08536761 162.79009471 -139.6887207 162.77705383 C-148.39797257 162.74291121 -157.10569925 162.65271155 -165.81428051 162.54220945 C-175.73183634 162.41910809 -185.64946638 162.35874045 -195.56759644 162.30355966 C-215.96258111 162.1886882 -236.35619435 161.99530205 -256.75 161.75 C-255.43299775 158.3151253 -254.17491556 155.72009061 -251.75 152.9375 C-251.234375 152.33292969 -250.71875 151.72835937 -250.1875 151.10546875 C-248.75 149.75 -248.75 149.75 -246.75 149.75 C-246.41355469 148.93789063 -246.41355469 148.93789063 -246.0703125 148.109375 C-244.33542025 145.00915334 -242.04422834 142.56971422 -239.625 140 C-239.10510498 139.4436084 -238.58520996 138.8872168 -238.04956055 138.31396484 C-218.27748425 117.30812024 -218.27748425 117.30812024 -209.64453125 111.20703125 C-207.59136639 109.69469899 -207.59136639 109.69469899 -205.40625 107.390625 C-202.5813771 104.582369 -199.58189409 102.11960816 -196.4375 99.6875 C-195.83574951 99.21924805 -195.23399902 98.75099609 -194.61401367 98.26855469 C-192.6638328 96.75644524 -190.70791159 95.25208381 -188.75 93.75 C-188.0787207 93.2338916 -187.40744141 92.7177832 -186.71582031 92.18603516 C-178.61401808 85.97568176 -170.46156489 80.08717787 -161.75 74.75 C-160.145088 73.70948205 -158.54095895 72.66775574 -156.9375 71.625 C-148.5145195 66.26050809 -139.85977588 61.27057997 -131.24755859 56.21826172 C-129.18827315 55.00765149 -127.13340058 53.79035241 -125.08203125 52.56640625 C-114.38618054 46.22236798 -102.9818412 39.55776355 -90.75 36.75 C-90.75 36.09 -90.75 35.43 -90.75 34.75 C-89.780625 34.32589844 -88.81125 33.90179687 -87.8125 33.46484375 C-87.1726416 33.18487549 -86.5327832 32.90490723 -85.87353516 32.61645508 C-84.44100733 31.98978592 -83.00838804 31.36332581 -81.57568359 30.73706055 C-77.87384591 29.11856578 -74.17339545 27.49708464 -70.4765625 25.8671875 C-64.06702771 23.0446609 -57.65649176 20.25055866 -51.1328125 17.69921875 C-48.52471455 16.66025514 -45.95372437 15.54728528 -43.375 14.4375 C-36.19554063 11.42585665 -28.84275775 8.9304714 -21.484375 6.3984375 C-13.83980747 3.88014999 -13.83980747 3.88014999 -6.546875 0.546875 C-4.1758886 -0.50460592 -2.56091435 -0.30991957 0 0 Z " fill="#010101" transform="translate(418.75,486.25)"/>
<path d="M0 0 C-3.20670803 1.77093524 -6.31714197 2.6962095 -9.86889648 3.56884766 C-11.05631943 3.86320709 -12.24374237 4.15756653 -13.46714783 4.46084595 C-14.10138105 4.6156908 -14.73561428 4.77053566 -15.3890667 4.93007278 C-17.4105596 5.42369964 -19.4305185 5.92322297 -21.45021057 6.42416382 C-25.77800929 7.49640252 -30.10766617 8.56101436 -34.4375 9.625 C-40.06245108 11.00797657 -45.68640487 12.39489633 -51.30859375 13.7890625 C-52.00288923 13.96107555 -52.69718472 14.13308861 -53.41251945 14.31031418 C-64.86159428 17.15299251 -76.24383858 20.19940717 -87.59959412 23.39468384 C-93.72661894 25.11717646 -99.84943835 26.74334125 -106.0625 28.125 C-114.70554941 30.08142467 -123.13621608 32.65241721 -131.6015625 35.26098633 C-138.07972511 37.25705699 -144.51379679 39.17150821 -151.125 40.6875 C-159.10636511 42.60221162 -166.81351796 45.21476806 -174.57714844 47.86157227 C-181.79406145 50.3065756 -189.04904483 52.53078205 -196.375 54.625 C-206.35078873 57.48674948 -216.19291192 60.60806065 -226 64 C-227.00885254 64.34853027 -228.01770508 64.69706055 -229.05712891 65.05615234 C-233.56480492 66.61463256 -238.07185803 68.17486986 -242.57714844 69.74023438 C-249.64991912 72.19614469 -256.73512834 74.60349231 -263.8515625 76.9296875 C-266.82285327 77.9397789 -269.75747526 79.02712777 -272.69430542 80.13259888 C-275.08475313 81.03188408 -277.47717494 81.9257342 -279.87011719 82.81835938 C-285.83112022 85.04278862 -291.79077164 87.27082116 -297.75 89.5 C-298.82236908 89.90095886 -299.89473816 90.30191772 -300.99960327 90.71502686 C-315.12948688 96.00158397 -329.23006317 101.34344019 -343.21582031 107.00195312 C-344.22354492 107.40607422 -345.23126953 107.81019531 -346.26953125 108.2265625 C-347.12135986 108.57283691 -347.97318848 108.91911133 -348.85083008 109.27587891 C-351 110 -351 110 -354 110 C-354 110.66 -354 111.32 -354 112 C-356.20268339 112.87202123 -358.41013866 113.72245702 -360.625 114.5625 C-361.85476563 115.03816406 -363.08453125 115.51382813 -364.3515625 116.00390625 C-369.99182132 117.54380561 -373.2891765 116.49980039 -378.30078125 113.8046875 C-379.97715405 112.83811498 -381.64736458 111.86080536 -383.3125 110.875 C-384.22475342 110.34438965 -385.13700684 109.8137793 -386.0769043 109.26708984 C-394.23973358 104.49963919 -402.34273935 99.62902199 -410.43261719 94.73901367 C-415.89830039 91.43898654 -421.38471714 88.18259716 -426.921875 85.00390625 C-428.03522217 84.36308105 -429.14856934 83.72225586 -430.2956543 83.06201172 C-432.43929965 81.83199086 -434.58649921 80.60813928 -436.73754883 79.39111328 C-437.69169678 78.84310059 -438.64584473 78.29508789 -439.62890625 77.73046875 C-440.8984314 77.00960083 -440.8984314 77.00960083 -442.19360352 76.27416992 C-442.78971436 75.85369385 -443.3858252 75.43321777 -444 75 C-444 74.34 -444 73.68 -444 73 C-444.98484375 72.76667969 -445.9696875 72.53335938 -446.984375 72.29296875 C-451.50086891 70.99816484 -455.26102512 68.74798876 -459.25 66.3125 C-459.98927734 65.86841797 -460.72855469 65.42433594 -461.49023438 64.96679688 C-463.6663079 63.65433477 -465.83422401 62.32937004 -468 61 C-468.60650391 60.63052246 -469.21300781 60.26104492 -469.83789062 59.88037109 C-478.79600094 54.40799811 -478.79600094 54.40799811 -480 52 C-470.1012706 49.49206856 -460.11565392 47.75011691 -450.0546875 46.04296875 C-446.11508569 45.37246546 -442.1843693 44.66884399 -438.2578125 43.92578125 C-429.03611452 42.18219977 -419.89090829 40.64913418 -410.55004883 39.71826172 C-404.61351191 39.11405094 -398.76068811 38.20383898 -392.88964844 37.14038086 C-387.68009177 36.21531352 -382.45567658 35.54901474 -377.20367432 34.91174316 C-370.34512689 34.06671218 -363.50554806 33.09745537 -356.6640625 32.125 C-354.19142428 31.77591393 -351.71876767 31.4269581 -349.24609375 31.078125 C-345.45106031 30.54244724 -341.65642291 30.0045187 -337.86279297 29.45898438 C-323.58457766 27.40939063 -309.36980635 25.58752626 -294.96768188 24.68310547 C-288.42725759 24.26046704 -282.01231004 23.47297423 -275.53036499 22.50613403 C-269.87198921 21.69491577 -264.19339592 21.11157757 -258.5078125 20.52734375 C-257.27819794 20.39936905 -256.04858337 20.27139435 -254.78170776 20.13954163 C-252.20210565 19.87186405 -249.62236099 19.605557 -247.04248047 19.34057617 C-243.14112846 18.93915948 -239.24047738 18.53137834 -235.33984375 18.12304688 C-223.97421818 16.94371841 -212.63749376 15.82653225 -201.22705078 15.20874023 C-196.40678069 14.89694337 -191.65495212 14.2402512 -186.875 13.5625 C-176.57778453 12.19295628 -166.29998102 11.40169478 -155.93383789 10.77197266 C-145.87659271 10.15300636 -135.8486566 9.32948054 -125.8125 8.4375 C-116.08751324 7.57496275 -106.3780472 6.76415261 -96.62097168 6.35958862 C-91.49064205 6.12674696 -86.42159926 5.65158727 -81.3203125 5.0703125 C-70.68992302 3.90803501 -60.04324898 3.15344543 -49.375 2.4375 C-47.5338338 2.31084259 -45.69268788 2.18389009 -43.8515625 2.05664062 C-10.84858665 -0.21087965 -10.84858665 -0.21087965 0 0 Z " fill="#030303" transform="translate(1112,380)"/>
<path d="M0 0 C3.45766135 1.4826195 7.06149358 2.54379448 10.64257812 3.68652344 C16.78971553 5.68371839 22.62370664 7.93175629 28.45898438 10.72949219 C31.66422289 12.15461429 34.93536076 13.06032519 38.30664062 14.00683594 C42.22627698 15.22654151 45.94762448 16.86133906 49.71679688 18.47949219 C54.18621009 20.35411692 58.72764688 22.02419263 63.27539062 23.69824219 C65.89257812 24.81152344 65.89257812 24.81152344 67.89257812 26.81152344 C62.12342714 31.52669492 56.2482475 36.05779578 50.26757812 40.49902344 C23.14181383 60.75040631 -7.60597209 85.80862388 -23.10742188 116.81152344 C-72.60742188 116.81152344 -122.10742188 116.81152344 -173.10742188 116.81152344 C-169.02089978 110.6817403 -165.30811631 105.51758641 -160.29492188 100.31152344 C-159.68181152 99.66570312 -159.06870117 99.01988281 -158.43701172 98.35449219 C-156.66889705 96.49850645 -154.89080037 94.65283433 -153.10742188 92.81152344 C-152.23988281 91.91433594 -151.37234375 91.01714844 -150.47851562 90.09277344 C-146.54578601 86.09848806 -142.49585993 82.30968377 -138.23632812 78.66699219 C-136.71858667 77.34419001 -135.22907062 75.98870854 -133.75976562 74.61230469 C-126.31748371 67.64147954 -118.38684629 61.4849627 -110.22119141 55.39013672 C-108.26979283 53.93278592 -106.32671137 52.46502234 -104.38476562 50.99511719 C-80.59070219 33.11802751 -54.64643975 18.19724623 -28.10742188 4.81152344 C-27.2953125 4.39547852 -26.48320313 3.97943359 -25.64648438 3.55078125 C-23.32975757 2.36898817 -21.00273556 1.21117413 -18.66992188 0.06152344 C-17.99002197 -0.2863623 -17.31012207 -0.63424805 -16.60961914 -0.99267578 C-10.14970078 -4.09676065 -6.29343767 -2.84966305 0 0 Z " fill="#010101" transform="translate(561.107421875,531.1884765625)"/>
<path d="M0 0 C15.65575869 8.82543518 30.82281652 18.38143889 46 28 C42.03649901 29.321167 40.78653238 28.31463117 37.00390625 26.6484375 C35.80443359 26.12636719 34.60496094 25.60429688 33.36914062 25.06640625 C32.10011237 24.50293748 30.83123275 23.93913383 29.5625 23.375 C28.32917338 22.83372914 27.09545269 22.29335527 25.86132812 21.75390625 C23.42297835 20.68778839 20.98623991 19.61825805 18.55029297 18.54663086 C14.22936611 16.66428513 9.88394085 14.84637289 5.52807617 13.04663086 C2.33932169 11.72647726 -0.83160128 10.36817217 -4 9 C-2.35 7.68 -0.7 6.36 1 5 C0.67 3.35 0.34 1.7 0 0 Z " fill="#131313" transform="translate(902,628)"/>
<path d="M0 0 C0.66 1.32 1.32 2.64 2 4 C49.85 4 97.7 4 147 4 C147 4.33 147 4.66 147 5 C97.5 5 48 5 -3 5 C-2.01 3.35 -1.02 1.7 0 0 Z " fill="#1D1D1D" transform="translate(391,643)"/>
<path d="M0 0 C-3.09689082 1.61752104 -5.80414011 2.49023634 -9.25 3.125 C-10.14203125 3.29257812 -11.0340625 3.46015625 -11.953125 3.6328125 C-12.96632813 3.81457031 -12.96632813 3.81457031 -14 4 C-14 3.67 -14 3.34 -14 3 C-24.23 3 -34.46 3 -45 3 C-45 2.67 -45 2.34 -45 2 C-40.35954866 1.71086093 -35.71884907 1.42622886 -31.07788086 1.14550781 C-29.50391447 1.04969697 -27.93001845 0.95272186 -26.35620117 0.85449219 C-17.56237929 0.30645114 -8.81642068 -0.17369881 0 0 Z " fill="#4B4B4B" transform="translate(1112,380)"/>
<path d="M0 0 C0.79019531 0.53882813 1.58039062 1.07765625 2.39453125 1.6328125 C2.98621094 2.04273438 3.57789063 2.45265625 4.1875 2.875 C0.80823443 4.00142186 0.45821722 3.83844705 -2.60546875 2.44140625 C-3.6737793 1.9628418 -3.6737793 1.9628418 -4.76367188 1.47460938 C-5.50166016 1.13236328 -6.23964844 0.79011719 -7 0.4375 C-7.74958984 0.09912109 -8.49917969 -0.23925781 -9.27148438 -0.58789062 C-11.12242698 -1.4249411 -12.96799666 -2.27385404 -14.8125 -3.125 C-14.8125 -3.455 -14.8125 -3.785 -14.8125 -4.125 C-8.70877863 -5.86892039 -5.012432 -3.44137123 0 0 Z " fill="#2D2D2D" transform="translate(943.8125,653.125)"/>
<path d="M0 0 C3.94120709 0.56302958 6.7508723 1.6791945 10 4 C10 4.66 10 5.32 10 6 C4.01006953 6.3152595 0.36439644 5.68219822 -5 3 C-4.360625 2.87625 -3.72125 2.7525 -3.0625 2.625 C-2.0415625 2.315625 -2.0415625 2.315625 -1 2 C-0.67 1.34 -0.34 0.68 0 0 Z " fill="#313131" transform="translate(924,643)"/>
<path d="M0 0 C1.77111844 0.47811177 3.54188483 0.9575278 5.3125 1.4375 C6.29863281 1.70433594 7.28476562 1.97117187 8.30078125 2.24609375 C10.21517526 2.78079425 12.11433615 3.37144538 14 4 C14 4.66 14 5.32 14 6 C12.03533587 7.06775224 10.03144641 8.06553465 8 9 C6 8 6 8 5 6 C4.34 6 3.68 6 3 6 C2.01 4.02 1.02 2.04 0 0 Z " fill="#202020" transform="translate(502,512)"/>
<path d="M0 0 C2.95857409 -0.05379226 5.91617721 -0.09357093 8.875 -0.125 C9.71675781 -0.14175781 10.55851563 -0.15851563 11.42578125 -0.17578125 C12.23144531 -0.18222656 13.03710938 -0.18867188 13.8671875 -0.1953125 C14.98262939 -0.21102295 14.98262939 -0.21102295 16.12060547 -0.22705078 C18 0 18 0 20 2 C19.01 2 18.02 2 17 2 C17 2.66 17 3.32 17 4 C11.147205 3.48517081 5.6702363 2.54642808 0 1 C0 0.67 0 0.34 0 0 Z " fill="#1A1A1A" transform="translate(126,386)"/>
<path d="M0 0 C0.99 0.33 1.98 0.66 3 1 C2 3 1 5 0 7 C-0.66 7.144375 -1.32 7.28875 -2 7.4375 C-2.66 7.623125 -3.32 7.80875 -4 8 C-4.33 8.99 -4.66 9.98 -5 11 C-8.5625 12.1875 -8.5625 12.1875 -12 13 C-8.60271539 8.84387175 -5.27000859 5.29400663 -1 2 C-0.67 1.34 -0.34 0.68 0 0 Z " fill="#212121" transform="translate(422,610)"/>
<path d="M0 0 C0 3 0 3 -1.3293457 4.48632812 C-1.93866943 4.99615234 -2.54799316 5.50597656 -3.17578125 6.03125 C-3.83900391 6.59457031 -4.50222656 7.15789063 -5.18554688 7.73828125 C-6.23838867 8.61033203 -6.23838867 8.61033203 -7.3125 9.5 C-8.68433803 10.65536685 -10.05545741 11.81158765 -11.42578125 12.96875 C-12.03848877 13.47857422 -12.65119629 13.98839844 -13.2824707 14.51367188 C-14.93431032 15.94315298 -16.47624843 17.43574327 -18 19 C-18.66 18.67 -19.32 18.34 -20 18 C-13.70185225 11.46064659 -7.22452096 5.50293299 0 0 Z " fill="#D0D0D0" transform="translate(373,600)"/>
<path d="M0 0 C0 2.66666667 0 5.33333333 0 8 C-3.31395777 9.12975833 -6.59702663 10.17884773 -10 11 C-6.79239749 7.19364503 -3.59253891 3.45436433 0 0 Z " fill="#1E1E1E" transform="translate(198,607)"/>
<path d="M0 0 C2.01822917 0.06510417 4.03645833 0.13020833 6.0546875 0.1953125 C5.3946875 0.8553125 4.7346875 1.5153125 4.0546875 2.1953125 C4.7146875 2.8553125 5.3746875 3.5153125 6.0546875 4.1953125 C6.0546875 5.1853125 6.0546875 6.1753125 6.0546875 7.1953125 C2.46077636 5.86043122 -0.70021946 4.23508527 -3.9453125 2.1953125 C-1.9453125 0.1953125 -1.9453125 0.1953125 0 0 Z " fill="#DEDEDE" transform="translate(661.9453125,481.8046875)"/>
<path d="M0 0 C3.12290635 0.48578543 5.99580359 0.9986012 9 2 C11.05893621 2.22325814 13.12233653 2.40705759 15.1875 2.5625 C16.27417969 2.64628906 17.36085938 2.73007812 18.48046875 2.81640625 C19.72763672 2.90728516 19.72763672 2.90728516 21 3 C20.01 4.485 20.01 4.485 19 6 C12.31816637 4.9559635 6.2534035 3.5957524 0 1 C0 0.67 0 0.34 0 0 Z " fill="#C7C7C7" transform="translate(448,494)"/>
<path d="M0 0 C0.66 0.33 1.32 0.66 2 1 C1 3 1 3 -0.9375 3.875 C-3.42001234 5.22909764 -3.96871397 6.42178493 -5 9 C-7.97 8.505 -7.97 8.505 -11 8 C-8.83385197 5.69125289 -6.60793392 3.94709819 -3.9375 2.25 C-2.89916016 1.57710937 -2.89916016 1.57710937 -1.83984375 0.890625 C-1.23269531 0.59671875 -0.62554687 0.3028125 0 0 Z " fill="#292929" transform="translate(286,543)"/>
<path d="M0 0 C0 3.54913582 -0.56122405 3.97588078 -2.875 6.5 C-4.81019815 8.63152259 -6.39002236 10.58503354 -8 13 C-8.99 12.34 -9.98 11.68 -11 11 C-7.37 7.37 -3.74 3.74 0 0 Z " fill="#CECECE" transform="translate(577,599)"/>
<path d="M0 0 C2.69082872 0.17635452 5.32851446 0.61835921 8 1 C8.33 1.99 8.66 2.98 9 4 C8.67 4.66 8.34 5.32 8 6 C4.22454612 4.90931332 1.52956528 4.0916909 -1 1 C-0.67 0.67 -0.34 0.34 0 0 Z " fill="#DDDDDD" transform="translate(669,488)"/>
<path d="M0 0 C0.99 0.33 1.98 0.66 3 1 C2.34 2.32 1.68 3.64 1 5 C-0.32 4.67 -1.64 4.34 -3 4 C-3.33 4.66 -3.66 5.32 -4 6 C-4.66 5.34 -5.32 4.68 -6 4 C-3.1875 1.9375 -3.1875 1.9375 0 0 Z " fill="#DBDBDB" transform="translate(418,567)"/>
<path d="M0 0 C0.66 0.33 1.32 0.66 2 1 C1.01 2.485 1.01 2.485 0 4 C0.66 4.33 1.32 4.66 2 5 C-1.40562852 5.77842938 -4.50765756 6.09978121 -8 6 C-5.63404067 3.38499232 -3.13950774 1.61000397 0 0 Z " fill="#D8D8D8" transform="translate(453,546)"/>
<path d="M0 0 C0 0.33 0 0.66 0 1 C-9.41002278 4.44419134 -9.41002278 4.44419134 -14 4 C-8.94313183 0.02674644 -6.49977193 -1.47722089 0 0 Z " fill="#3C3C3C" transform="translate(556,529)"/>
<path d="M0 0 C0.33 0.66 0.66 1.32 1 2 C-2.33333333 5.33333333 -5.66666667 8.66666667 -9 12 C-9 9 -9 9 -7.03125 6.73828125 C-5.77828125 5.53751953 -5.77828125 5.53751953 -4.5 4.3125 C-3.6646875 3.50425781 -2.829375 2.69601562 -1.96875 1.86328125 C-1.3190625 1.24839844 -0.669375 0.63351562 0 0 Z " fill="#E7E7E7" transform="translate(352,619)"/>
<path d="M0 0 C3.46941546 0.45822468 6.67395049 0.89131683 10 2 C10 3.32 10 4.64 10 6 C6.40992874 4.66654496 3.20429093 3.1056769 0 1 C0 0.67 0 0.34 0 0 Z " fill="#CECECE" transform="translate(909,632)"/>
<path d="M0 0 C0.99 0.99 1.98 1.98 3 3 C2.67 3.99 2.34 4.98 2 6 C1.34 5.34 0.68 4.68 0 4 C-1.32 5.32 -2.64 6.64 -4 8 C-4.66 7.67 -5.32 7.34 -6 7 C-4.02 4.69 -2.04 2.38 0 0 Z " fill="#303030" transform="translate(404,628)"/>
<path d="M0 0 C0.66 0.33 1.32 0.66 2 1 C-0.49825283 4.21203935 -3.0702992 7.17493137 -6 10 C-6 9.34 -6 8.68 -6 8 C-6.66 7.67 -7.32 7.34 -8 7 C-5.36 4.69 -2.72 2.38 0 0 Z " fill="#323232" transform="translate(442,593)"/>
<path d="M0 0 C2.31 0.66 4.62 1.32 7 2 C7.33 3.32 7.66 4.64 8 6 C5.03 5.01 2.06 4.02 -1 3 C-0.67 2.01 -0.34 1.02 0 0 Z " fill="#2B2B2B" transform="translate(859,617)"/>
<path d="M0 0 C0.66 0.33 1.32 0.66 2 1 C-1.3 3.97 -4.6 6.94 -8 10 C-8.33 9.01 -8.66 8.02 -9 7 C-6.03 4.69 -3.06 2.38 0 0 Z " fill="#CDCDCD" transform="translate(613,569)"/>
<path d="M0 0 C0.556875 0.226875 1.11375 0.45375 1.6875 0.6875 C0.6975 2.1725 0.6975 2.1725 -0.3125 3.6875 C-1.6325 3.6875 -2.9525 3.6875 -4.3125 3.6875 C-4.6425 4.3475 -4.9725 5.0075 -5.3125 5.6875 C-5.3125 5.0275 -5.3125 4.3675 -5.3125 3.6875 C-5.9725 3.3575 -6.6325 3.0275 -7.3125 2.6875 C-2.88173077 -0.38942308 -2.88173077 -0.38942308 0 0 Z " fill="#212121" transform="translate(316.3125,528.3125)"/>
<path d="M0 0 C-1.32 1.32 -2.64 2.64 -4 4 C-4.99 3.67 -5.98 3.34 -7 3 C-9.00875442 3.27571139 -11.01178687 3.60235737 -13 4 C-10.81006393 1.81006393 -9.4012702 1.27802011 -6.5 0.3125 C-5.7059375 0.04050781 -4.911875 -0.23148437 -4.09375 -0.51171875 C-2 -1 -2 -1 0 0 Z " fill="#434343" transform="translate(395,495)"/>
<path d="M0 0 C4.75 0.875 4.75 0.875 7 2 C7 2.66 7 3.32 7 4 C5.02 4 3.04 4 1 4 C0.67 2.68 0.34 1.36 0 0 Z " fill="#121212" transform="translate(927,645)"/>
<path d="M0 0 C0.33 0.66 0.66 1.32 1 2 C-0.61000397 5.13950774 -2.38499232 7.63404067 -5 10 C-5.66 9.67 -6.32 9.34 -7 9 C-4.69 6.03 -2.38 3.06 0 0 Z " fill="#383838" transform="translate(170,636)"/>
<path d="M0 0 C2.00720923 0.28674418 4.0085944 0.61866701 6 1 C1.25 4.875 1.25 4.875 -1 6 C-1.042721 4.33388095 -1.04063832 2.66617115 -1 1 C-0.67 0.67 -0.34 0.34 0 0 Z " fill="#EAEAEA" transform="translate(479,562)"/>
<path d="M0 0 C2.97 0.99 5.94 1.98 9 3 C5.25 6 5.25 6 3 6 C2.01 4.02 1.02 2.04 0 0 Z " fill="#111111" transform="translate(502,512)"/>
<path d="M0 0 C2.475 0.99 2.475 0.99 5 2 C5 3.32 5 4.64 5 6 C2.08482708 4.92598892 0.22189824 4.22189824 -2 2 C-1.34 1.34 -0.68 0.68 0 0 Z " fill="#DCDCDC" transform="translate(493,386)"/>
<path d="M0 0 C3.48539917 0.64544429 6.02819057 2.10134397 9 4 C4.82412255 5.39195915 2.86525224 3.82323219 -1 2 C-0.67 1.34 -0.34 0.68 0 0 Z " fill="#555555" transform="translate(939,652)"/>
<path d="M0 0 C0.99 0.33 1.98 0.66 3 1 C4.1875 3.5625 4.1875 3.5625 5 6 C3.68 6.33 2.36 6.66 1 7 C0.67 4.69 0.34 2.38 0 0 Z " fill="#0B0B0B" transform="translate(899,627)"/>
<path d="M0 0 C0.66 0.33 1.32 0.66 2 1 C1.67 1.99 1.34 2.98 1 4 C-0.65 3.67 -2.3 3.34 -4 3 C-4.66 4.32 -5.32 5.64 -6 7 C-6 6.34 -6 5.68 -6 5 C-6.66 4.67 -7.32 4.34 -8 4 C-6.71349294 3.30289269 -5.42059335 2.61757124 -4.125 1.9375 C-3.40570313 1.55464844 -2.68640625 1.17179688 -1.9453125 0.77734375 C-1.30335938 0.52082031 -0.66140625 0.26429688 0 0 Z " fill="#C8C8C8" transform="translate(467,539)"/>
<path d="M0 0 C-1 1.5 -1 1.5 -3 3 C-5.71846235 3.27345479 -8.25677199 3.13491285 -11 3 C-8.89427904 -1.21144191 -4.11694326 -0.07767817 0 0 Z " fill="#202020" transform="translate(387,499)"/>
<path d="M0 0 C2 0.875 2 0.875 3.25 3.4375 C3.4975 4.241875 3.745 5.04625 4 5.875 C0.62496331 4.6891763 -1.64722731 3.59926311 -4 0.875 C-2 -0.125 -2 -0.125 0 0 Z " fill="#D4D4D4" transform="translate(882,612.125)"/>
<path d="M0 0 C1.32 0.66 2.64 1.32 4 2 C3.01 3.485 3.01 3.485 2 5 C2 4.34 2 3.68 2 3 C1.34 3 0.68 3 0 3 C-0.33 3.66 -0.66 4.32 -1 5 C-3.0625 5.625 -3.0625 5.625 -5 6 C-3.35 4.02 -1.7 2.04 0 0 Z " fill="#212121" transform="translate(212,594)"/>
<path d="M0 0 C3.68754757 0.49831724 5.60490662 1.10067643 8 4 C7.2575 3.814375 6.515 3.62875 5.75 3.4375 C3.05009037 3.00796892 1.55368923 3.14877026 -1 4 C-0.67 2.68 -0.34 1.36 0 0 Z " fill="#131313" transform="translate(789,562)"/>
<path d="M0 0 C0.99 0.33 1.98 0.66 3 1 C0.87219421 3.34058637 -1.11562221 4.70700306 -4 6 C-4.33 5.01 -4.66 4.02 -5 3 C-2.6875 1.4375 -2.6875 1.4375 0 0 Z " fill="#E8E8E8" transform="translate(498,552)"/>
<path d="M0 0 C0.33 0.99 0.66 1.98 1 3 C-0.28650706 3.69710731 -1.57940665 4.38242876 -2.875 5.0625 C-3.95394531 5.63677734 -3.95394531 5.63677734 -5.0546875 6.22265625 C-5.69664062 6.47917969 -6.33859375 6.73570312 -7 7 C-7.66 6.67 -8.32 6.34 -9 6 C-6.03 4.02 -3.06 2.04 0 0 Z " fill="#2F2F2F" transform="translate(273,551)"/>
<path d="M0 0 C2.475 0.99 2.475 0.99 5 2 C2.61426621 3.89213369 0.92824652 5.02391783 -2 6 C-2.33 5.01 -2.66 4.02 -3 3 C-2.01 3 -1.02 3 0 3 C0 2.01 0 1.02 0 0 Z " fill="#EDEDED" transform="translate(289,537)"/>
<path d="M0 0 C0.66 0.33 1.32 0.66 2 1 C2 2.32 2 3.64 2 5 C-0.66666667 5 -3.33333333 5 -6 5 C-4.02 3.35 -2.04 1.7 0 0 Z " fill="#2C2C2C" transform="translate(450,587)"/>
<path d="M0 0 C0.66 0.33 1.32 0.66 2 1 C0.35 2.65 -1.3 4.3 -3 6 C-3.99 5.34 -4.98 4.68 -6 4 C-4.02 2.68 -2.04 1.36 0 0 Z " fill="#2A2A2A" transform="translate(488,561)"/>
<path d="M0 0 C2.31 0.33 4.62 0.66 7 1 C3.09971775 3.60018816 -0.47434569 3.15085514 -5 3 C-5 2.67 -5 2.34 -5 2 C-3.35 2 -1.7 2 0 2 C0 1.34 0 0.68 0 0 Z " fill="#A2A2A2" transform="translate(735,413)"/>
<path d="M0 0 C0.66 0.66 1.32 1.32 2 2 C0.02 3.98 -1.96 5.96 -4 8 C-4.66 7.67 -5.32 7.34 -6 7 C-4.02 4.69 -2.04 2.38 0 0 Z " fill="#CBCBCB" transform="translate(337,634)"/>
<path d="M0 0 C1.32 0.99 2.64 1.98 4 3 C2.68 3.99 1.36 4.98 0 6 C-0.66 5.34 -1.32 4.68 -2 4 C-1.34 2.68 -0.68 1.36 0 0 Z " fill="#151515" transform="translate(353,612)"/>
<path d="M0 0 C2.475 0.99 2.475 0.99 5 2 C3.68 3.32 2.36 4.64 1 6 C0 1.125 0 1.125 0 0 Z " fill="#0F0F0F" transform="translate(356,608)"/>
<path d="M0 0 C-2.3125 2.0625 -2.3125 2.0625 -5 4 C-5.99 3.67 -6.98 3.34 -8 3 C-5.45189726 -0.82215411 -4.39145359 -1.46381786 0 0 Z " fill="#1E1E1E" transform="translate(392,586)"/>
<path d="M0 0 C4.75 0.75 4.75 0.75 7 3 C5.68 3.99 4.36 4.98 3 6 C2.814375 5.071875 2.814375 5.071875 2.625 4.125 C2.12802644 1.80879168 2.12802644 1.80879168 0 0 Z " fill="#1A1A1A" transform="translate(622,555)"/>
<path d="M0 0 C2.97 0.495 2.97 0.495 6 1 C6 1.99 6 2.98 6 4 C5.01 4.495 5.01 4.495 4 5 C1.375 4.0625 1.375 4.0625 -1 3 C-0.67 2.01 -0.34 1.02 0 0 Z " fill="#CFCFCF" transform="translate(610,547)"/>
<path d="M0 0 C0.66 0.33 1.32 0.66 2 1 C-1.75 4.875 -1.75 4.875 -4 6 C-4 5.34 -4 4.68 -4 4 C-4.99 3.67 -5.98 3.34 -7 3 C-4.69631264 1.93347808 -2.35981813 0.93578995 0 0 Z " fill="#C8C8C8" transform="translate(488,529)"/>
<path d="M0 0 C0 2 0 2 -1.0625 3.6875 C-3 5 -3 5 -6.6875 4.6875 C-7.780625 4.460625 -8.87375 4.23375 -10 4 C-6.86268382 1.90845588 -3.85464592 0 0 0 Z " fill="#BDBDBD" transform="translate(768,487)"/>
<path d="M0 0 C0.33 1.32 0.66 2.64 1 4 C-1.91517292 2.92598892 -3.77810176 2.22189824 -6 0 C-3.50907189 -1.24546405 -2.58919267 -0.7767578 0 0 Z " fill="#D2D2D2" transform="translate(655,478)"/>
<path d="M0 0 C0.99 0.33 1.98 0.66 3 1 C3 1.66 3 2.32 3 3 C4.32 2.67 5.64 2.34 7 2 C6.67 2.99 6.34 3.98 6 5 C0.25 3.25 0.25 3.25 -2 1 C-1.34 0.67 -0.68 0.34 0 0 Z " fill="#D2D2D2" transform="translate(520,402)"/>
<path d="M0 0 C1.98 0.66 3.96 1.32 6 2 C6 2.99 6 3.98 6 5 C4.68 5.33 3.36 5.66 2 6 C2.33 4.68 2.66 3.36 3 2 C2.01 2 1.02 2 0 2 C0 1.34 0 0.68 0 0 Z " fill="#E9E9E9" transform="translate(890,633)"/>
<path d="M0 0 C0.66 0.66 1.32 1.32 2 2 C0.35 3.65 -1.3 5.3 -3 7 C-3 3.48283697 -2.17554415 2.62878252 0 0 Z " fill="#161616" transform="translate(557,617)"/>
<path d="M0 0 C0.66 0.33 1.32 0.66 2 1 C1.34 2.32 0.68 3.64 0 5 C-3 5 -3 5 -5 4 C-3.35 2.68 -1.7 1.36 0 0 Z " fill="#2C2C2C" transform="translate(204,602)"/>
<path d="M0 0 C1.98 0.66 3.96 1.32 6 2 C4.625 4 4.625 4 3 6 C2.34 6 1.68 6 1 6 C0.67 4.02 0.34 2.04 0 0 Z " fill="#171717" transform="translate(616,552)"/>
<path d="M0 0 C-0.33 1.98 -0.66 3.96 -1 6 C-1.99 5.67 -2.98 5.34 -4 5 C-4 4.34 -4 3.68 -4 3 C-4.66 2.67 -5.32 2.34 -6 2 C-2.25 0 -2.25 0 0 0 Z " fill="#E0E0E0" transform="translate(445,552)"/>
<path d="M0 0 C2.625 0.9375 2.625 0.9375 5 2 C5 2.99 5 3.98 5 5 C2.08482708 3.92598892 0.22189824 3.22189824 -2 1 C-1.34 0.67 -0.68 0.34 0 0 Z " fill="#DDDDDD" transform="translate(745,532)"/>
<path d="M0 0 C1.98 0.99 3.96 1.98 6 3 C4.1875 4.0625 4.1875 4.0625 2 5 C1.01 4.67 0.02 4.34 -1 4 C-0.67 2.68 -0.34 1.36 0 0 Z " fill="#181818" transform="translate(638,472)"/>
<path d="M0 0 C1.98 0.99 3.96 1.98 6 3 C5.67 3.99 5.34 4.98 5 6 C4.01 5.67 3.02 5.34 2 5 C0.8125 2.4375 0.8125 2.4375 0 0 Z " fill="#181818" transform="translate(626,465)"/>
<path d="M0 0 C2.25 0.25 2.25 0.25 4 1 C3.34 1 2.68 1 2 1 C2 2.32 2 3.64 2 5 C-0.97 4.505 -0.97 4.505 -4 4 C-2.25 1.9375 -2.25 1.9375 0 0 Z " fill="#363636" transform="translate(390,442)"/>
<path d="M0 0 C-0.33 0.99 -0.66 1.98 -1 3 C-1.99 3 -2.98 3 -4 3 C-4 2.34 -4 1.68 -4 1 C-4.99 0.67 -5.98 0.34 -7 0 C-3.86650268 -1.04449911 -3.01031744 -0.93423645 0 0 Z " fill="#E1E1E1" transform="translate(924,433)"/>
<path d="M0 0 C2.33944736 0.28730055 4.6739143 0.61936779 7 1 C3.09971775 3.60018816 -0.47434569 3.15085514 -5 3 C-4.360625 2.690625 -3.72125 2.38125 -3.0625 2.0625 C-1.06389179 1.1654837 -1.06389179 1.1654837 0 0 Z " fill="#A0A0A0" transform="translate(823,402)"/>
<path d="M0 0 C2.64 0 5.28 0 8 0 C7.67 0.99 7.34 1.98 7 3 C5.02 3.33 3.04 3.66 1 4 C1.66 3.34 2.32 2.68 3 2 C2.01 1.34 1.02 0.68 0 0 Z " fill="#2B2B2B" transform="translate(1003,387)"/>
</svg>
